<?xml version="1.0" encoding="UTF-8"?>
<svg id="Layer_1" data-name="Layer 1" xmlns="http://www.w3.org/2000/svg" viewBox="0 0 64 64">
  <defs>
    <style>
      .cls-1 {
        stroke-width: 0px;
      }
    </style>
  </defs>
  <path class="cls-1" d="M14.48,32c0-9.69,7.86-17.53,17.56-17.52,9.64,0,17.51,7.89,17.48,17.52-.02,9.73-7.88,17.55-17.62,17.52-9.59-.02-17.42-7.9-17.42-17.52ZM43.67,31.98c.02-6.41-5.18-11.63-11.59-11.65-6.48-.02-11.72,5.16-11.74,11.58-.02,6.55,5.15,11.74,11.7,11.75,6.44,0,11.62-5.2,11.63-11.68Z"/>
  <path class="cls-1" d="M50.49,10.32c1.6.06,2.51.59,3.02,1.67.52,1.11.41,2.21-.4,3.13-.8.9-1.66,1.76-2.56,2.56-1.17,1.04-2.89.93-3.96-.16-1.09-1.11-1.12-2.85-.04-4.02.76-.82,1.52-1.65,2.38-2.36.53-.44,1.25-.66,1.57-.82Z"/>
  <path class="cls-1" d="M29.1,7.13c0-.52-.02-1.05,0-1.57.07-1.58,1.33-2.76,2.9-2.75,1.58,0,2.83,1.18,2.89,2.77.04,1.07.04,2.14,0,3.21-.06,1.57-1.35,2.78-2.9,2.77-1.55,0-2.82-1.22-2.89-2.79-.02-.55,0-1.09,0-1.64Z"/>
  <path class="cls-1" d="M7.13,34.9c-.52,0-1.05.02-1.57,0-1.58-.08-2.75-1.33-2.75-2.91,0-1.58,1.19-2.83,2.77-2.88,1.07-.04,2.14-.04,3.21,0,1.56.06,2.78,1.36,2.77,2.9,0,1.55-1.22,2.81-2.79,2.89-.55.02-1.09,0-1.64,0Z"/>
  <path class="cls-1" d="M56.78,34.9c-.52,0-1.05.02-1.57,0-1.56-.08-2.78-1.36-2.77-2.91,0-1.55,1.22-2.83,2.79-2.88,1.07-.04,2.14-.04,3.21,0,1.58.06,2.75,1.32,2.75,2.9,0,1.57-1.19,2.82-2.77,2.89-.55.02-1.09,0-1.64,0Z"/>
  <path class="cls-1" d="M29.1,56.82c0-.52-.02-1.05,0-1.57.06-1.57,1.31-2.79,2.87-2.81,1.57-.02,2.87,1.21,2.93,2.82.03,1.05.03,2.09,0,3.14-.05,1.62-1.33,2.81-2.93,2.79-1.57-.02-2.8-1.21-2.86-2.8-.02-.52,0-1.05,0-1.57Z"/>
  <path class="cls-1" d="M15.11,18.41c-.35-.17-1.06-.4-1.6-.83-.78-.62-1.47-1.37-2.14-2.11-1.03-1.14-.95-2.88.14-3.96,1.07-1.07,2.78-1.18,3.91-.18.82.72,1.6,1.5,2.31,2.33.78.91.88,1.99.38,3.07-.51,1.09-1.43,1.61-2.99,1.68Z"/>
  <path class="cls-1" d="M13.27,53.49c-1.07-.01-2.11-.71-2.55-1.82-.45-1.12-.2-2.33.7-3.2.64-.62,1.28-1.23,1.95-1.81,1.22-1.07,2.98-1,4.06.14,1.09,1.14,1.08,2.9-.04,4.07-.58.61-1.18,1.2-1.79,1.79-.6.59-1.33.86-2.34.83Z"/>
  <path class="cls-1" d="M50.9,53.5c-1.14,0-1.89-.33-2.5-.98-.48-.52-.97-1.03-1.44-1.55-1.04-1.12-.95-2.85.19-3.92,1.13-1.07,2.79-1.07,3.86,0,.61.61,1.26,1.2,1.81,1.86.77.92.88,1.98.38,3.08-.5,1.08-1.42,1.49-2.3,1.51Z"/>
  <path class="cls-1" d="M29.09,31.95c0-1.87,0-3.74,0-5.61.01-1.95,1.25-3.14,3.19-3.1,4.4.09,8.15,3.69,8.45,8.12.31,4.52-2.93,8.63-7.33,9.27-.45.07-.91.12-1.36.12-1.66,0-2.92-1.2-2.95-2.86-.03-1.98,0-3.96,0-5.95h0Z"/>
</svg>