<?xml version="1.0" encoding="UTF-8"?>
<svg id="Layer_1" data-name="Layer 1" xmlns="http://www.w3.org/2000/svg" viewBox="0 0 64 64">
  <defs>
    <style>
      .cls-1 {
        stroke-width: 0px;
      }
    </style>
  </defs>
  <path class="cls-1" d="M61.47,58.12c-.16.41-.27.84-.48,1.22-.69,1.21-1.76,1.88-3.15,1.88-7.23.02-14.46,0-21.69,0-4.77,0-9.55,0-14.32,0-5.1,0-10.2,0-15.3,0-2.46,0-3.98-1.52-3.98-3.98,0-16.82,0-33.64,0-50.46,0-2.77,1.88-4.36,4.61-3.94,7.97,1.21,15.95,2.41,23.92,3.62.85.13,1.7.26,2.55.41,2.12.37,3.29,1.75,3.3,3.9,0,4.37,0,8.75,0,13.12,0,.23,0,.45,0,.73,1.59.32,3.14.63,4.7.94,5.64,1.12,11.27,2.23,16.9,3.37,1.48.3,2.44,1.23,2.84,2.7.02.09.07.17.11.26v26.24ZM34.45,58.75v-.75c0-15.65,0-31.3,0-46.95,0-.15,0-.31,0-.46-.03-.76-.36-1.17-1.11-1.3-.89-.16-1.78-.29-2.67-.42-7.99-1.2-15.99-2.41-23.98-3.61-1.11-.17-1.7.3-1.7,1.42,0,16.86,0,33.72,0,50.57,0,1.07.47,1.52,1.56,1.52,1.75,0,3.49,0,5.24,0,.17,0,.34-.02.57-.03,0-.26,0-.48,0-.7,0-3.36,0-6.71,0-10.07,0-2.39,1.53-3.92,3.92-3.92,2.28,0,4.56,0,6.85,0,2.48,0,3.96,1.49,3.96,3.98,0,3.34,0,6.67,0,10.01,0,.22,0,.45,0,.7h7.37ZM36.96,27.13v31.65c.25,0,.46,0,.66,0,6.56,0,13.12,0,19.68,0,1.31,0,1.71-.4,1.71-1.72,0-8.02,0-16.04,0-24.05,0-1.27-.26-1.57-1.5-1.82-5.19-1.02-10.37-2.05-15.56-3.08-1.65-.33-3.31-.65-5-.98ZM24.61,58.75c0-.2.02-.37.02-.54,0-3.39,0-6.78,0-10.18,0-1.1-.44-1.54-1.53-1.54-2.24,0-4.48,0-6.73,0-1.16,0-1.55.4-1.55,1.55,0,3.37,0,6.75,0,10.12,0,.19.02.37.03.58h9.76Z"/>
  <path class="cls-1" d="M13.62,14.58c.78,0,1.57-.01,2.35,0,.79.02,1.31.52,1.29,1.23-.01.7-.54,1.2-1.33,1.21-1.57.01-3.14.01-4.71,0-.78,0-1.31-.51-1.32-1.21,0-.71.51-1.21,1.3-1.22.8-.02,1.61,0,2.41,0Z"/>
  <path class="cls-1" d="M13.57,24.39c-.78,0-1.57,0-2.35,0-.78-.01-1.31-.52-1.31-1.22,0-.71.51-1.21,1.31-1.22,1.59-.01,3.18-.01,4.77,0,.79,0,1.3.53,1.29,1.24-.01.68-.53,1.18-1.28,1.2-.8.02-1.61,0-2.41,0Z"/>
  <path class="cls-1" d="M13.64,29.32c.78,0,1.57-.01,2.35,0,.76.02,1.26.51,1.27,1.2,0,.71-.52,1.23-1.3,1.24-1.59.01-3.18.01-4.77,0-.78,0-1.3-.53-1.29-1.24,0-.69.51-1.18,1.27-1.2.82-.02,1.65,0,2.47,0Z"/>
  <path class="cls-1" d="M13.59,36.68c.78,0,1.57-.01,2.35,0,.8.01,1.31.5,1.32,1.21,0,.71-.53,1.22-1.31,1.23-1.59.01-3.18.01-4.77,0-.77,0-1.3-.54-1.29-1.25.01-.69.51-1.17,1.28-1.19.8-.02,1.61,0,2.41,0Z"/>
  <path class="cls-1" d="M25.83,17.03c-.77,0-1.53,0-2.3,0-.83-.01-1.35-.5-1.34-1.24,0-.73.5-1.19,1.32-1.19,1.57-.01,3.14-.01,4.71,0,.79,0,1.32.51,1.32,1.21,0,.72-.54,1.22-1.36,1.23-.78,0-1.57,0-2.35,0Z"/>
  <path class="cls-1" d="M25.89,21.95c.78,0,1.57-.01,2.35,0,.78.02,1.31.53,1.3,1.23-.01.7-.54,1.2-1.33,1.21-1.57.01-3.14.01-4.71,0-.79,0-1.31-.5-1.31-1.21,0-.73.48-1.2,1.29-1.23.04,0,.08,0,.11,0,.77,0,1.53,0,2.3,0Z"/>
  <path class="cls-1" d="M25.89,29.32c.78,0,1.57-.01,2.35,0,.78.02,1.31.53,1.3,1.23-.01.7-.54,1.2-1.33,1.21-1.57.01-3.14.01-4.71,0-.79,0-1.31-.5-1.31-1.21,0-.73.48-1.21,1.29-1.23.8-.02,1.61,0,2.41,0Z"/>
  <path class="cls-1" d="M25.85,36.68c.8,0,1.61-.01,2.41,0,.75.02,1.27.51,1.28,1.19.01.71-.52,1.24-1.29,1.24-1.59.01-3.18.01-4.76,0-.79,0-1.3-.51-1.29-1.23,0-.73.49-1.19,1.3-1.21.78-.01,1.57,0,2.35,0Z"/>
  <path class="cls-1" d="M47.97,36.68c.78,0,1.57-.01,2.35,0,.79.01,1.32.51,1.32,1.21,0,.7-.53,1.22-1.31,1.22-1.59.01-3.18.01-4.76,0-.78,0-1.28-.52-1.27-1.25.01-.71.49-1.17,1.27-1.19.8-.02,1.61,0,2.41,0Z"/>
  <path class="cls-1" d="M47.95,44.05c.8,0,1.61-.01,2.41,0,.75.02,1.27.51,1.28,1.19.01.71-.52,1.24-1.29,1.24-1.59.01-3.18.01-4.76,0-.79,0-1.3-.51-1.29-1.23,0-.73.49-1.19,1.3-1.21.78-.01,1.57,0,2.35,0Z"/>
  <path class="cls-1" d="M47.99,51.42c.78,0,1.57-.01,2.35,0,.78.02,1.31.53,1.3,1.23-.01.7-.54,1.2-1.33,1.21-1.57.01-3.14.01-4.71,0-.8,0-1.31-.49-1.32-1.21,0-.73.48-1.21,1.28-1.23.8-.02,1.61,0,2.41,0Z"/>
</svg>