<?xml version="1.0" encoding="UTF-8"?>
<svg id="Layer_1" data-name="Layer 1" xmlns="http://www.w3.org/2000/svg" viewBox="0 0 64 64">
  <defs>
    <style>
      .cls-1 {
        stroke-width: 0px;
      }
    </style>
  </defs>
  <path class="cls-1" d="M31.98,1.35c9.48-.03,17.57,7.13,18.66,16.51.42,3.63-.26,7.1-1.36,10.52-1.59,4.96-3.92,9.57-6.51,14.06-2.93,5.08-6.2,9.94-9.75,14.61-.77,1.02-1.28,1.02-2.01,0-5.32-7.49-10.25-15.21-14.08-23.58-1.54-3.36-2.93-6.8-3.43-10.49-1.06-7.84,1.76-14.04,8.21-18.54,3.06-2.14,6.56-3.09,10.27-3.1ZM32.01,55.41c.13-.15.19-.22.24-.28,3.44-4.65,6.63-9.45,9.47-14.48,2.56-4.53,4.86-9.19,6.29-14.22.91-3.18,1.34-6.4.65-9.68C46.45,6.28,35.6.45,25.65,4.37c-7.32,2.88-11.72,10.73-10.38,18.49.58,3.35,1.76,6.5,3.15,9.58,3.05,6.77,6.91,13.09,11.03,19.25.82,1.23,1.68,2.44,2.56,3.72Z"/>
  <path class="cls-1" d="M30.78,62.65c-4.49-.09-9.34-.43-14.06-1.73-1.3-.36-2.53-.97-3.76-1.52-.39-.18-.74-.5-1.04-.82-.99-1.03-1.05-2.39.03-3.32.82-.7,1.81-1.26,2.81-1.69,2.16-.92,4.48-1.29,6.78-1.65.61-.09,1.06.23,1.14.75.07.5-.28.89-.9,1.03-2.02.46-4.06.89-6.06,1.42-.72.19-1.41.58-2.05.99-.93.59-.93,1.18.05,1.69,1.04.55,2.15,1.03,3.28,1.35,5.01,1.43,10.15,1.73,15.33,1.72,4.62,0,9.21-.32,13.71-1.44,1.17-.29,2.29-.74,3.43-1.15.3-.1.57-.28.84-.45.98-.63,1.04-1.19.02-1.73-1.17-.62-2.42-1.16-3.69-1.5-1.76-.47-3.57-.71-5.37-1.05-.15-.03-.3-.04-.44-.08-.5-.15-.74-.49-.66-1.01.08-.49.41-.77.9-.71,3.42.42,6.84.9,9.9,2.62,2.53,1.42,2.52,3.6.02,5.1-1.96,1.17-4.16,1.68-6.37,2.1-4.44.84-8.93,1.12-13.82,1.08Z"/>
  <path class="cls-1" d="M31.97,30.91c-6.04-.08-10.85-4.94-10.76-10.87.08-6.02,4.99-10.8,11-10.71,5.88.08,10.68,5.02,10.61,10.92-.07,5.91-4.98,10.75-10.84,10.67ZM31.95,29.13c4.89.08,8.98-3.93,9.07-8.87.09-4.92-3.94-9.08-8.87-9.15-4.99-.07-9.09,3.91-9.17,8.91-.08,4.96,3.92,9.03,8.96,9.11Z"/>
</svg>