<?xml version="1.0" encoding="UTF-8" standalone="no"?> <svg xmlns="http://www.w3.org/2000/svg" viewBox="0 0 48 48"><g id="Wrench"><circle cx="8" cy="40" r="1"/><path d="M45.336,9.265A1,1,0,0,0,43.688,8.9l-5.016,5.018L34.85,13.15l-.764-3.822L39.1,4.312a1,1,0,0,0-.368-1.648,10.793,10.793,0,0,0-6.881-.2,11.012,11.012,0,0,0-6.729,5.784,10.64,10.64,0,0,0-.867,7.08L3.743,35.843a5.95,5.95,0,1,0,8.414,8.414L32.672,23.742a10.652,10.652,0,0,0,7.08-.867,11.009,11.009,0,0,0,5.784-6.729A10.793,10.793,0,0,0,45.336,9.265Zm-1.718,6.313a9,9,0,0,1-4.737,5.5,8.7,8.7,0,0,1-6.254.6,1,1,0,0,0-.971.258L10.743,42.843a3.95,3.95,0,1,1-5.586-5.586L26.07,16.344a1,1,0,0,0,.258-.971,8.7,8.7,0,0,1,.6-6.254A8.95,8.95,0,0,1,35,4a8.759,8.759,0,0,1,1.461.124L32.672,7.914a1.994,1.994,0,0,0-.548,1.807l.765,3.822a1.994,1.994,0,0,0,1.568,1.568l3.822.765a2,2,0,0,0,1.807-.548l3.792-3.792A8.839,8.839,0,0,1,43.618,15.578Z"/></g></svg>