<?xml version="1.0" encoding="UTF-8"?>
<svg id="Layer_1" data-name="Layer 1" xmlns="http://www.w3.org/2000/svg" viewBox="0 0 49.08 49.08">
  <defs>
    <style>
      .cls-1 {
        fill: #fff;
        stroke-width: 0px;
      }
    </style>
  </defs>
  <path class="cls-1" d="M33.76,24.54l13.4-13.4c2.55-2.55,2.55-6.68,0-9.22-2.55-2.55-6.68-2.55-9.22,0l-13.4,13.4L11.13,1.91C8.59-.64,4.46-.64,1.91,1.91-.64,4.46-.64,8.59,1.91,11.13l13.4,13.4L1.91,37.94c-2.55,2.55-2.55,6.68,0,9.22s6.68,2.55,9.22,0l13.4-13.4,13.4,13.4c2.55,2.55,6.68,2.55,9.22,0s2.55-6.68,0-9.22l-13.4-13.4Z"/>
</svg>