<?xml version="1.0" encoding="UTF-8"?>
<svg id="Layer_1" data-name="Layer 1" xmlns="http://www.w3.org/2000/svg" viewBox="0 0 56.79 56.79">
  <defs>
    <style>
      .cls-1 {
        stroke-width: 0px;
      }
    </style>
  </defs>
  <path class="cls-1" d="M28.4,0C12.71,0,0,12.71,0,28.4s12.71,28.4,28.4,28.4,28.4-12.71,28.4-28.4S44.08,0,28.4,0ZM41.66,39.44H15.46c-1.31,0-2.38-1.06-2.38-2.38s1.06-2.38,2.38-2.38h26.2c1.31,0,2.38,1.06,2.38,2.38s-1.06,2.38-2.38,2.38ZM44.04,28.36c0,1.31-1.06,2.38-2.38,2.38H15.46c-1.31,0-2.38-1.06-2.38-2.38h0c0-1.31,1.06-2.38,2.38-2.38h26.2c1.31,0,2.38,1.06,2.38,2.38h0ZM41.66,22.05H15.46c-1.31,0-2.38-1.06-2.38-2.38s1.06-2.38,2.38-2.38h26.2c1.31,0,2.38,1.06,2.38,2.38s-1.06,2.38-2.38,2.38Z"/>
</svg>